<svg height="512pt" viewBox="-41 0 512 512.00174" width="512pt" xmlns="http://www.w3.org/2000/svg"><path d="m272.46875 303.691406h-.296875v-15.519531c0-8.570313-6.949219-15.519531-15.519531-15.519531h-59.472656v-31.035156h-18.007813c-33.664063 0-62.308594 21.445312-73.050781 51.414062l-45.515625 97.605469 15.769531 7.351562-15.105469 32.390625-15.769531-7.351562-37.988281 81.472656h97.203125l20.628906-44.242188-16.121094-7.515624 15.105469-32.394532 16.121094 7.519532 10.300781-22.09375c3.160156-6.777344 10.363281-10.722657 17.773438-9.703126 3.480468.480469 7.035156.730469 10.648437.730469h63.125c8.570313 0 15.519531-6.949219 15.519531-15.519531v-15.515625c8.570313 0 15.515625-6.949219 15.515625-15.519531v-15.519532h-.863281c2.929688 0 5.304688-2.375 5.304688-5.300781v-20.433593c-.003907-2.925782-2.375-5.300782-5.304688-5.300782zm0 0" fill="#ffccbc"/><path d="m272.46875 303.691406h-.296875v-15.519531c0-8.570313-6.949219-15.519531-15.519531-15.519531h-24.480469l1.160156 57.59375c0 5.714844-3.085937 10.707031-7.683593 13.398437-4.742188 2.777344-7.832032 7.675781-7.832032 13.167969v4.46875c0 8.574219-6.949218 15.519531-15.519531 15.519531h-63.125c-3.613281 0-7.167969-.25-10.648437-.726562-7.410157-1.023438-14.613282 2.921875-17.773438 9.699219l-35.03125 75.125c-6.710938 14.398437-21.160156 23.601562-37.046875 23.601562h-21.835937l-9.324219 20h97.203125l20.628906-44.242188-16.121094-7.515624 15.105469-32.394532 16.121094 7.519532 10.300781-22.09375c3.160156-6.777344 10.363281-10.722657 17.773438-9.703126 3.480468.480469 7.035156.730469 10.648437.730469h63.125c8.570313 0 15.519531-6.949219 15.519531-15.519531v-15.515625c8.570313 0 15.515625-6.949219 15.515625-15.519531v-15.519532h-.863281c2.929688 0 5.304688-2.375 5.304688-5.300781v-20.433593c0-2.925782-2.375-5.300782-5.304688-5.300782zm0 0" fill="#ff8a65"/><path d="m203.050781 7.515625h33.375v230.808594h-33.375zm0 0" fill="#cfd8dc"/><path d="m418.660156 161.265625c-61.851562-15.800781-120.214844 26.648437-182.230468 7.816406 0-50.046875 0-100.097656 0-150.148437 62.65625 19.023437 121.582031-24.496094 184.144531-7.308594 1.648437.453125 2.808593 1.929688 2.808593 3.640625v142.367187c-.003906 2.46875-2.332031 4.242188-4.722656 3.632813zm0 0" fill="#ffca28"/><path d="m420.574219 11.625c-12.523438-3.441406-24.902344-4.445312-37.191407-4.007812v86.332031c0 23.375-18.292968 42.808593-41.640624 43.878906-35.332032 1.617187-69.96875 14.8125-105.316407 16.070313v15.183593c62.019531 18.832031 120.378907-23.617187 182.234375-7.816406 2.390625.609375 4.71875-1.164063 4.71875-3.632813 0-47.453124 0-94.910156 0-142.367187 0-1.710937-1.15625-3.1875-2.804687-3.640625zm0 0" fill="#ffa000"/><path d="m329.902344 90.757812v-75.070312c0-.003906 0-.003906 0-.003906-30.839844 6.453125-61.675782 12.90625-93.472656 3.25v75.074218c32.121093 9.953126 61.515624 4.484376 93.472656-3.25zm0 0" fill="#ef5350"/><path d="m329.902344 165.828125c29.308594-6.128906 58.621094-12.261719 88.757812-4.5625 2.390625.609375 4.71875-1.164063 4.71875-3.632813 0-23.375 0-46.746093 0-70.121093-32.152344-9.960938-61.398437-4.511719-93.476562 3.246093zm0 0" fill="#ef5350"/><path d="m383.382812 82.164062v11.785157c0 23.375-18.292968 42.808593-41.640624 43.878906-3.953126.179687-7.898438.515625-11.839844.953125v27.046875c29.878906-6.246094 58.863281-12.195313 88.757812-4.5625 2.390625.609375 4.71875-1.164063 4.71875-3.632813 0-23.375 0-46.746093 0-70.121093-13.710937-4.25-26.894531-5.6875-39.996094-5.347657zm0 0" fill="#d32f2f"/><path d="m125.460938 417.917969-17.371094 37.253906c-1.378906 2.953125-4.890625 4.230469-7.84375 2.855469l-37.253906-17.375c-2.953126-1.375-4.234376-4.886719-2.855469-7.839844l17.371093-37.257812c1.378907-2.953126 4.890626-4.230469 7.84375-2.855469l37.253907 17.375c2.957031 1.378906 4.234375 4.886719 2.855469 7.84375zm0 0" fill="#b0bec5"/><path d="m122.605469 410.074219-10.523438-4.910157-9.210937 19.753907c-4.019532 8.617187-14.261719 12.34375-22.878906 8.328125l-16.476563-7.683594-3.378906 7.246094c-1.378907 2.957031-.101563 6.464844 2.855469 7.84375l37.253906 17.375c2.953125 1.375 6.464844.097656 7.84375-2.855469l17.371094-37.257813c1.378906-2.953124.101562-6.460937-2.855469-7.839843zm0 0" fill="#78909c"/><g fill="#546e7a"><path d="m76.375 397.988281-18.132812-8.457031c-2.023438-.941406-4.421876-.066406-5.363282 1.953125l-11.695312 25.078125c-.941406 2.019531-.066406 4.417969 1.953125 5.363281l18.132812 8.453125zm0 0"/><path d="m109.222656 452.738281 18.132813 8.457031c2.023437.941407 4.421875.066407 5.363281-1.953124l11.695312-25.078126c.941407-2.019531.066407-4.417968-1.953124-5.359374l-18.132813-8.457032zm0 0"/><path d="m197.183594 272.652344v-34.332032h45.113281v34.332032zm0 149.59375h45.113281v-25.445313h-45.113281zm0 0"/></g><path d="m423.378906 112.714844c4.144532 0 7.5-3.355469 7.5-7.5 0-99.304688 0-85.035156 0-89.945313.003906-5.058593-3.417968-9.527343-8.316406-10.875-63.078125-17.332031-120.285156 23.183594-178.636719 8.824219v-5.703125c0-4.140625-3.355469-7.4960938-7.5-7.4960938h-33.375c-4.144531 0-7.5 3.3554688-7.5 7.4960938v81.460937c0 4.140626 3.355469 7.496094 7.5 7.496094 4.140625 0 7.5-3.355468 7.5-7.496094v-73.960937h18.375v215.808594h-18.375v-106.851563c0-4.140625-3.359375-7.5-7.5-7.5-4.144531 0-7.5 3.359375-7.5 7.5v107.027344c-1.898437.421875-3.527343 1.5625-4.582031 3.121094h-11.792969c-36.273437 0-67.933593 22.820312-79.996093 56.042968l-15.21875 32.644532c-1.75 3.753906-.125 8.214844 3.628906 9.964844s8.21875.125 9.96875-3.628907c16.449218-35.289062 15.445312-33.097656 15.621094-33.585937 9.773437-27.261719 35.746093-46.4375 65.996093-46.4375h10.507813v16.035156h-7.769532c-4.140624 0-7.5 3.355469-7.5 7.5 0 4.140625 3.359376 7.5 7.5 7.5 12.167969 0-4.992187.003906 74.742188.003906 4.421875 0 8.019531 3.597656 8.019531 8.019532v8.011718h-39.5625c-4.140625 0-7.5 3.359375-7.5 7.5 0 4.144532 3.359375 7.5 7.5 7.5h45.160157v16.039063h-45.160157c-4.140625 0-7.5 3.355469-7.5 7.5 0 4.140625 3.359375 7.5 7.5 7.5h40.722657v8.015625c0 4.410156-3.578126 8-7.984376 8.019531-7.089843 0 17.554688 0-32.738281 0-4.140625 0-7.5 3.355469-7.5 7.5s3.359375 7.5 7.5 7.5h25.199219v8.019531c0 4.40625-3.574219 8.019532-8.015625 8.019532h-45.117187c-17.867188 0-21.242188.222656-27.640626-.65625-10.722656-1.476563-21.007812 4.128906-25.589843 13.957031l-7.132813 15.296875-3.328125-1.554688c.363281-5.242187-2.433593-10.605468-7.714843-13.066406l-37.253907-17.375c-5.160156-2.40625-11.085937-1.230469-14.960937 2.496094l-2.984375-1.390625 12.191406-26.144531c1.75-3.753907.125-8.214844-3.628906-9.964844-3.753907-1.753906-8.214844-.128906-9.964844 3.625l-12.648437 27.121094c-4.304688.007812-8.472657 2.441406-10.445313 6.667968l-11.691406 25.078125c-1.953125 4.179688-1.167969 8.945313 1.605469 12.273438l-35.28125 75.664062c-2.3125 4.964844 1.3125 10.667969 6.796874 10.667969h97.203126c2.914062 0 5.5625-1.6875 6.796874-4.328125l18-38.597656c4.15625-.167969 8.109376-2.585938 10.007813-6.65625l11.691406-25.078125c1.894531-4.0625 1.21875-8.644532-1.332031-11.945313l7.667969-16.449219c1.785156-3.828124 5.78125-6.015624 9.949219-5.4375 7.304687 1 11.867187.796876 22.1875.796876v17.941406c0 4.144531 3.355468 7.5 7.5 7.5h45.113281c4.140625 0 7.5-3.355469 7.5-7.5v-19.195313c9.023437-3.117187 15.519531-11.695312 15.519531-21.765625v-9.273437c9.019531-3.117188 15.519531-11.695313 15.519531-21.765625v-11.136719c2.714844-2.347656 4.4375-5.816406 4.4375-9.683594v-20.429687c0-4.390625-2.222656-8.273438-5.597656-10.582032v-10.234374c0-12.695313-10.328125-23.019532-23.019531-23.019532h-6.859375v-26.839844c0-3.582031-2.511719-6.574218-5.867188-7.320312v-52.25c29.691407 6.320312 58.125.570312 87.394531-5.554688.09375-.019531.1875-.039062.277344-.058593 29.210938-6.109375 56.804688-11.859375 85.207032-4.605469 7.132812 1.828125 14.074218-3.539062 14.074218-10.898438v-17.417968c0-4.144532-3.359375-7.5-7.5-7.5s-7.5 3.355468-7.5 7.5v12.699218c-26.964844-5.738281-53.089844-1.484374-78.476562 3.699219v-59.933593c26.847656-6.292969 51.773437-10.375 78.476562-3.503907v12.039063c.003906 4.140625 3.359375 7.5 7.5 7.5zm-305.390625 303.480468c-2.410156 5.167969-14.289062 30.648438-16.019531 34.359376l-34.359375-16.023438c1.636719-3.511719-5.933594 12.726562 16.019531-34.359375zm-59.777343-18.402343 8.195312 3.824219-8.761719 18.796874-8.199219-3.824218zm41.722656 99.207031h-80.652344l29.847656-64.007812 2.988282 1.394531c-.363282 5.363281 2.546874 10.660156 7.703124 13.0625l37.257813 17.375c5.230469 2.441406 11.144531 1.195312 14.96875-2.492188l3.328125 1.550781zm27.453125-44.066406-8.199219-3.820313 8.769531-18.796875 8.195313 3.820313zm77.292969-38.1875v-10.441406h30.117187v10.441406zm117.722656-389.847656v59.941406c-26.84375 6.292968-51.769532 10.378906-78.472656 3.503906v-59.738281c26.960937 5.734375 53.074218 1.480469 78.472656-3.707031zm-117.714844 220.921874h30.109375v19.335938h-30.109375zm39.238281-82.453124v-59.601563c26.648438 5.980469 51.773438 2.546875 78.476563-3.535156v59.503906c-26.746094 5.539063-52.320313 10.070313-78.476563 3.632813zm93.476563-82.078126v-59.507812c26.757812-5.542969 52.300781-10.066406 78.480468-3.628906v59.601562c-27.238281-6.113281-52.824218-2.308594-78.480468 3.535156zm0 0"/></svg>